# xmcd CD database file
#
# Track frame offsets:
#	150
#	13967
#	30972
#	42775
#	53002
#	70592
#	86265
#	101107
#	117197
#	130977
#	150405
#	167022
#
# Disc length: 2522 seconds
#
# Revision: 0
# Processed by: cddbd v1.5.1PL0 Copyright (c) Steve Scherf et al.
# Submitted via: CDex 1.51
#
DISCID=8909d80c
DTITLE=U（ゆう） - ふだん着の昭和歌集〜ジャパニーズスタンダード〜
DYEAR=2004
DGENRE=World Music
TTITLE0=この道
TTITLE1=リンゴの唄
TTITLE2=丘を越えて
TTITLE3=青い山脈
TTITLE4=浜辺の歌
TTITLE5=みかんの花咲く丘
TTITLE6=山寺の和尚さん
TTITLE7=朧月夜
TTITLE8=夏は来ぬ
TTITLE9=椰子の実
TTITLE10=仰げば尊し
TTITLE11=蛍の光
EXTD=YEAR: 2004
EXTT0=
EXTT1=
EXTT2=
EXTT3=
EXTT4=
EXTT5=
EXTT6=
EXTT7=
EXTT8=
EXTT9=
EXTT10=
EXTT11=
PLAYORDER=
